<?xml version="1.0" encoding="UTF-8"?>
<svg xmlns="http://www.w3.org/2000/svg" version="1.1" viewBox="0 0 526.4 467.6">
  <defs>
    <style>
      .cls-1 {
        fill: #fff;
      }
    </style>
  </defs>
  <!-- Generator: Adobe Illustrator 28.7.1, SVG Export Plug-In . SVG Version: 1.2.0 Build 142)  -->
  <g>
    <g id="Calque_2">
      <g id="Calque_1-2">
        <path class="cls-1" d="M41.3,229.1c3-36.3-31.4-44.6-39.9-91.8-.4-2.3-9.2-55.8,24.6-96.4C66.4-7.4,136.6,0,144.3.9c66.9,8.1,69,57.2,127.3,63.1,67.1,6.8,89.4-54.4,156.7-40.2,44.5,9.4,70.8,43.7,73.5,47.3,19.6,26.4,22.7,54,24,67.3,4.6,47.3-14.2,67.6-29.1,121.2-23,82.6,8.7,115.6-24.7,162.3-5.1,7.2-19.9,27.2-46.6,38.3-17.8,7.4-39.9,10.4-74.2,2.9-60.8-13.1-69.6-42.1-118.2-57.9-88.3-28.7-134.6,20.4-186.3-19.2-24.4-18.7-45.2-53.3-41.2-85.3,4.2-34,33.1-38.7,35.9-71.8h0Z"/>
      </g>
    </g>
  </g>
</svg>