<?xml version="1.0" encoding="UTF-8"?>
<svg id="Calque_2" xmlns="http://www.w3.org/2000/svg" viewBox="0 0 526.41 467.58">
  <g id="Calque_1-2" data-name="Calque_1">
    <path d="M41.26,229.14c3.01-36.27-31.4-44.64-39.92-91.78-.42-2.32-9.25-55.83,24.64-96.36C66.44-7.38,136.6.01,144.26.94c66.88,8.08,69.03,57.21,127.26,63.07,67.05,6.76,89.38-54.37,156.73-40.17,44.54,9.39,70.8,43.72,73.46,47.31,19.64,26.45,22.68,54,23.99,67.34,4.63,47.33-14.21,67.59-29.1,121.18-22.97,82.63,8.74,115.61-24.69,162.32-5.15,7.19-19.88,27.25-46.56,38.34-17.83,7.41-39.89,10.36-74.24,2.93-60.75-13.14-69.64-42.08-118.18-57.88-88.27-28.72-134.55,20.4-186.29-19.16-24.4-18.66-45.15-53.32-41.22-85.29,4.18-34.04,33.11-38.69,35.86-71.79Z" fill="#f4f4f4"/>
  </g>
</svg>