<?xml version="1.0" encoding="UTF-8"?>
<svg id="Calque_2" xmlns="http://www.w3.org/2000/svg" viewBox="0 0 483.57 249.62">
  <g id="Calque_1-2" data-name="Calque_1">
    <path d="M.22,19.48c4.8,2.4,12.56,5.74,22.56,7.53,16.67,2.99,22.8-1.33,34.05,1.12,9.01,1.96,9.08,5.6,34.13,28.02,32.29,28.89,41.37,31.08,47.89,30.96,4.04-.07,8.46-1.06,13.22,1.63,5.05,2.86,6.3,7.5,15.32,13.99,1.11.8,1.93,1.33,2.78,1.89,9.31,6.04,18.48,9.14,26.85,12.23,22.5,8.3,23.75,10.85,23.89,12.49.41,4.62-7.49,7.25-6.41,11.24.96,3.56,8.45,5.98,11.49,3.46,1.56-1.29,1.55-3.67,1.58-5.58.1-6.69-4.14-9.12-2.75-12.49,1.05-2.54,4.8-4.41,7.24-3.25,1.66.79,2.84,3.03,2.25,4.5-.82,2.06-6.32-.71-7.74,1.25-1.29,1.78,1.38,6.2,4.25,8.74,1.15,1.02,4.95,4.38,8.49,3.25,2.19-.7,3.37-2.97,5.74-7.49,1.56-2.98,1.39-5.29,2.41-5.41.97-.11,2.09,1.69,2.58,3.18,1.19,3.63-.69,7.3-1.21,8.32,0,0-9.68,18.99-17.89,44.17-1.12,3.44-2.72,8.87-.98,15.05.22.77,1.25,4.27,3.98,7.64,2.75,3.39,7.55,6.48,21.98,9.49,13.57,2.83,23.51,4.9,31.47-.25,5.65-3.66,7.07-8.86,10.74-18.23,9.34-23.85,20.36-47.01,30.4-70.57,1.19-2.79,4.39-10.23,1.16-14.6-.92-1.24-2.06-1.84-2.62-2.12-19.87-10.15-45.76-16.46-55.34-19.54-1.42-.46-3.55-1.18-5.81-.38-4.07,1.45-4.25,6.3-7.58,6.78-1.66.24-1.89-1.06-5.99-2.25-1.11-.32-6.3-1.82-6.74-.87-.56,1.19,6.64,5.52,6.49,5.74-.1.15-3.81-1.67-8.12-5-4.27-3.3-6.32-5.9-6.83-5.54-.52.37.96,3.58,2.66,6.33,5.46,8.82,11.41,10.02,20.27,19.09,3.93,4.02,8.77,9.07,7.32,12.48-.85,1.99-3.53,2.64-5.28,3.06-6.16,1.49-11.85-.65-15.99-2.66-11.44-5.57-11-10.2-17.98-12.99-9.7-3.88-13.29,3.95-29.31,4-4.1.01-20.51.05-32.97-10.32-6.31-5.25-10.92-12.61-14.99-11.2-2.35.81-2.11,3.72-5.99,5.88-.5.28-4.53,2.44-8.66,1-3.44-1.2-5.23-4.31-5.6-5.04-5.8-11.72,39.63-55.19,49.2-48.47,2.67,1.88,1.86,7.19,1.35,10.54-3.09,20.25-28.45,39.34-51.95,36.09-12.44-1.72-20.75-9.21-27.31-15.1-5.86-5.27-16-14.4-16.13-27.08-.04-3.68.78-6.47,1.81-9.55C94.7,23.53,101.6,2.91,114.28.67c6.22-1.1,11.86,3.36,23.14,12.28,12.86,10.17,19.1,18.66,41.13,41,7.07,7.17,10.68,10.61,16.73,12.07,9.52,2.3,20.78-1.35,25.85-3,7.3-2.37,8.51-4.02,12.99-3.87,4.42.15,5.76,1.84,16.86,8.49,2.36,1.41,15.97,9.53,21.62,17.09.43.57,1.52,2.09,1.02,2.94-.87,1.47-5.18-1.26-8.26.11-4.47,1.99-6.26,12.62-3.18,21.22,3.09,8.6,9.7,11.39,8.33,16.67-.82,3.17-3.94,4.97-4.58,5.34-5.1,2.94-9.42-.57-14.82,1.95-2.21,1.03-4.06,2.52-5.82,5.81-6.37,11.9-15.02,35.76-22.65,50.62-6.21,12.09-10.3,15.43-13.65,17.32-5.05,2.84-5.32.63-17.44,4.7-10.43,3.5-16.84,7.35-20.98,13.57h0c-5.17,7.75-13.79,5.11-33.72,5.59-.87.02-3.15.08-3.49-.85-.31-.84,1.12-2.11,1.87-2.75,8.43-7.14,27.07-16.45,30.22-18.73.22-.16,1.06-.79,2.32-1.29,1.38-.55,2.59-.67,3.3-.71,34.89-2.14,54.74,2.62,54.74,2.62,8.2,1.97,19.94,5.4,19.69,6.79-.22,1.19-9.22-.03-23.69-.29-18.76-.34-32.77,1.2-32.76,1.54.02.65,50.23.48,74.06,3.46h0c4.13.52,10.86,1.28,25.64-.83,8.34-1.19,13-2.4,12.95-2.87-.07-.56-6.82.67-7.95-1.79-.81-1.74,1.64-4.42,2.04-4.86.66-.72,3.03-3.11,7.95-3.8,7.9-1.11,16.35,3.03,21.69,5.7,28.24,14.16,29.79,15.87,29.47,16.73-.4,1.1-3.77.78-5.22.65-20.42-1.79-72.55-.65-176.82,1.65-2.84.06-43.27,1.13-45.02,9.71-.24,1.18.12,2.26.12,2.26,1.82,5.51,14.66,5.71,21.01,5.76,138.98,1.04,208.47,1.56,236.15-13.06,13.9-7.34,36.21-21.26,63.94-16.91,15.03,2.35,26.63,9.29,34.22,14.94" fill="none" stroke="#000091" stroke-linejoin="round"/>
  </g>
</svg>