<svg xmlns="http://www.w3.org/2000/svg" height="40px" viewBox="0 -960 960 960" width="40px" fill="#000091"><path d="M329.59-254.87h300.82v-50.26H329.59v50.26Zm0-164.87h300.82V-470H329.59v50.26ZM242.57-100q-25.79 0-44.18-18.39T180-162.57v-634.86q0-25.79 18.39-44.18T242.57-860h337.58L780-660.15v497.58q0 25.79-18.39 44.18T717.43-100H242.57Zm312.46-536.51v-173.23H242.57q-4.62 0-8.47 3.84-3.84 3.85-3.84 8.47v634.86q0 4.62 3.84 8.47 3.85 3.84 8.47 3.84h474.86q4.62 0 8.47-3.84 3.84-3.85 3.84-8.47v-473.94H555.03ZM230.26-809.74v173.23-173.23 659.48-659.48Z"/></svg>