<?xml version="1.0" encoding="UTF-8"?>
<svg xmlns="http://www.w3.org/2000/svg" version="1.1" viewBox="0 0 267.1 216.6">
  <defs>
    <style>
      .cls-1 {
        fill: #000091;
      }

      .cls-2 {
        fill: #fff;
      }

      .cls-3 {
        fill: #9c9b9b;
      }

      .cls-4 {
        fill: #e1000f;
      }
    </style>
  </defs>
  <!-- Generator: Adobe Illustrator 28.7.1, SVG Export Plug-In . SVG Version: 1.2.0 Build 142)  -->
  <g>
    <g id="Calque_1">
      <g id="Calque_1-2" data-name="Calque_1">
        <path id="Devise_Républicaine" d="M93.6,206.8c.7,0,1.3.7,1.1,2.2l-3.6.8c.5-1.6,1.6-3,2.6-3M95.5,212.8h-.7c-.9.9-1.9,1.9-2.8,1.9s-1.5-.7-1.5-1.9c0-.5,0-1.1.1-1.6l5.8-1.9c1.2-2.7-.1-3.9-1.8-3.9s-5.9,4.6-5.9,8.6.9,2.8,2.2,2.8,3.2-1.6,4.6-4M94.4,204.3l4-3.8v-.5h-2.2l-2.6,4.3h.7ZM81.9,207h1.9l-3.1,8.4c-.2.5,0,1.2.6,1.4,0,0,.2,0,.2,0,2.5-.4,4.6-1.9,5.7-4.2h-.7c-.9,1.1-2.1,1.9-3.5,2.2l2.8-7.8h2.8l.4-1.2h-2.8l1.1-3h-1.1l-2,3-2.3.3v.9ZM79.2,206.6c.3-.8-.3-1.2-.7-1.2-2.1.3-3.8,1.7-4.5,3.6h.5c.5-.8,1.3-1.5,2.3-1.8l-3.2,8.4c-.2.5.1,1,.6,1.2,0,0,.1,0,.2,0,1.5,0,3.4-1.6,4.2-3.6h-.5c-.6.8-1.4,1.4-2.3,1.8l3.4-8.4ZM79.8,202.4c.8,0,1.4-.7,1.3-1.5,0-.7-.6-1.3-1.3-1.3-.8,0-1.4.6-1.5,1.3,0,.8.7,1.5,1.5,1.5h0M61.2,215.2c-.3.5-.1,1.2.4,1.5.2,0,.4.1.5.1.7,0,.8-.1,1.1-.8l2.3-5.9c1-1.2,2.4-2.1,3.9-2.6.7,0,.5.5.1,1.2l-3.4,6.6c-.3.4-.2,1,.2,1.3.2.1.4.2.6.2,2-.3,3.8-1.7,4.5-3.6h-.5c-.6.8-1.4,1.4-2.3,1.8l3-5.9c.3-.6.5-1.3.5-2,0-.8-.5-1.5-1.3-1.6,0,0-.2,0-.3,0-1.3,0-2.8,1.6-4.6,3.6v-1.6c0-1.1-.4-2-1.3-2-.8.1-1.5.6-1.9,1.3h0c1.1,0,1.6,1.6.8,3.4l-2.3,5.1ZM61.2,207.9c.4-1.3.1-2.6-.8-2.6s-1.6.9-2.8,3.6v-1.6c0-1.1-.4-2-1.3-2s-2.3,1.8-3.1,3.6h.5c.5-.8,1.1-1.3,1.5-1.3s.8.8,0,2.6l-2.3,5c-.3.5-.1,1.2.4,1.5.2,0,.4.1.5.1.7,0,.8-.1,1.1-.8l2.3-5.9c.6-.8,1.2-1.5,1.9-2.2h2.2ZM48.3,206.8c.8,0,1.5.7,1.2,2.2l-3.6.8c.5-1.6,1.6-3,2.4-3M50.3,212.8h-.7c-.9.9-1.9,1.9-2.8,1.9s-1.5-.7-1.5-1.9c0-.5,0-1.1.1-1.6l5.8-1.9c1.2-2.7-.1-3.9-1.8-3.9s-5.9,4.6-5.9,8.6.8,2.8,2.2,2.8,3.2-1.6,4.6-4M36.7,207h1.9l-3.1,8.4c-.2.5,0,1.2.6,1.4,0,0,.2,0,.2,0,2.5-.3,4.6-1.9,5.5-4.2h-.5c-.9,1.1-2.1,1.9-3.5,2.2l2.8-7.8h2.8l.4-1.2h-2.8l1.1-3h-1.1l-2,3-2.3.3v.9ZM26,213.4c0-2.6,2.8-6.1,4.5-6.1h.9l-1.6,4.5c-.9,1.2-2.4,2.7-3.1,2.7s-.7-.4-.7-1.2M34.8,204.7h-.8l-.9.9h-.3c-4.9,0-8.9,5.4-8.9,9.3,0,.9.6,1.7,1.5,1.8,0,0,.2,0,.3,0,1.2,0,2.4-1.8,3.8-3.6v.5c-.1,2,.5,3.1,1.5,3.1s2.3-1.9,3.1-3.6h-.5c-.5.8-1.1,1.2-1.5,1.2s-.8-.8,0-2.4l2.8-7.2ZM24.6,207.8c.4-1.3.1-2.6-.9-2.6s-1.5.9-2.8,3.6v-1.6c0-1.1-.3-2-1.3-2s-2.2,1.8-3,3.6h.5c.5-.8,1.1-1.3,1.5-1.3s.8.8,0,2.6l-2.3,5c-.4.9,0,1.6.9,1.6s.8-.1,1.1-.8l2.2-5.9c.6-.8,1.3-1.5,2-2.2h2.2ZM8.4,216.1l.3-.5c-2.8-.5-3.1-.5-2-3.6l1.1-3h3.1c1.3,0,1.5.5,1.2,2h.8l1.9-5h-.8c-.7,1.2-1.2,2-2.8,2h-3l1.6-4.5c.4-1.3.8-1.6,2.7-1.6h1.3c1.9,0,2.2.5,2.2,2.4h.8l.5-3.4H5.7v.7c2.3.4,2.4.7,1.3,3.5l-2.4,6.9c-1.1,3-1.5,3.1-4.2,3.6v.5h8ZM65.4,180.6c.8,0,1.5.5,1.1,2l-3.6.8c.7-1.6,1.8-2.8,2.6-2.8M67.4,186.5h-.8c-.6,1-1.7,1.7-2.8,1.9-.9,0-1.5-.5-1.5-1.9,0-.5.1-1.1.3-1.6l5.8-1.9c1.1-2.7-.3-3.9-1.9-3.9s-5.8,4.6-5.8,8.6.8,2.8,2.2,2.8,3.2-1.5,4.6-4M66.2,177.9l4.2-3.8v-.4h-2.3l-2.6,4.2h.7ZM53.7,180.6h1.9l-3,8.4c-.3.8,0,1.5.8,1.5,2.4-.3,4.5-1.8,5.5-4h-.5c-1,1-2.2,1.7-3.5,2.2l2.7-8h3l.3-1.2h-2.7l1.1-3h-1.2l-1.9,3-2.4.4v.8ZM51.1,180.2c.1-.8-.3-1.2-.7-1.2-2.1.2-3.9,1.6-4.6,3.6h.5c.5-.9,1.4-1.5,2.4-1.8l-3.2,8.4c-.3.8.3,1.2.7,1.2,2-.3,3.7-1.7,4.3-3.6h-.5c-.5.9-1.4,1.5-2.4,1.8l3.5-8.4ZM51.6,176.1c.7,0,1.3-.4,1.3-1.1,0,0,0-.2,0-.3,0-.7-.6-1.3-1.3-1.3s-1.3.6-1.3,1.3c0,.7.4,1.3,1.1,1.3,0,0,.2,0,.3,0M40.4,188.6l5.9-15.4h-.3l-3.6.4v.4l.7.5c.7.5.5.9-.1,2.6l-4.6,12c-.2.5,0,1.2.6,1.4,0,0,.2,0,.2,0,2-.2,3.7-1.7,4.3-3.6h-.5c-.6.9-1.5,1.5-2.6,1.8M29.4,187.4c0-2.7,2.8-6.2,4.5-6.2h.9l-1.6,4.6c-.9,1.1-2.4,2.6-3.2,2.6s-.5-.4-.5-1.1M38.1,178.6h-.8l-1.1.9h-.1c-4.9,0-8.9,5.4-8.9,9.3,0,.9.6,1.7,1.5,1.7,0,0,0,0,.1,0,1.3,0,2.6-1.8,3.9-3.6v.7c-.1,1.9.4,3,1.5,3s2.2-1.9,3.1-3.6h-.5c-.7.8-1.2,1.3-1.6,1.3s-.7-.8,0-2.6l3-7.2ZM16.8,192.5c0-1.1,1.1-1.8,2.6-2.4l2.3.8c1.6.5,2.2.8,2.2,1.3s-1.8,1.8-4,1.8-3-.4-3-1.5M21.1,185.8c-.7,0-.9-.7-.9-1.3s.9-4.6,2.6-4.6.9.5.9,1.2-.9,4.7-2.6,4.7M25.7,191.4c0-1.3-1.2-1.8-3.2-2.4s-2.4-.5-2.4-1.1c0-.6.5-1.2,1.1-1.3,2.5-.2,4.5-2.2,4.6-4.7,0-.4-.1-.8-.3-1.2h2.3l.4-1.2h-3.6l-1.5-.4c-2.6,0-4.8,2.1-4.9,4.7,0,1.3.9,2.5,2.2,2.7-1.3.7-2,1.3-2,2.2,0,.5.2.9.5,1.2-3.1.9-4.5,1.9-4.5,3.4s1.9,2.2,4.2,2.2,7.2-2.2,7.2-3.9M11,182.5c1.3,0,1.3.5,1.2,2h.8l1.8-5h-.8c-.7,1.1-1.2,2-2.7,2h-3.1l1.6-4.2c.4-1.5.8-1.8,2.7-1.8h1.3c1.9,0,2.2.5,2.2,2.6h.8l.5-3.5H5.7v.7c2.3.4,2.4.7,1.3,3.5l-2.4,6.9c-1.1,3-1.5,3.2-4.2,3.6v.7h12.7l2.3-3.6h-.9c-1.5,1.7-3.7,2.6-5.9,2.7-3.4,0-3.1-.1-1.9-3.4l1.2-3.2h3.1ZM12.6,173.6l4.2-2.7v-.5h-2.6l-2.3,3.2h.7ZM64,154.3c.8,0,1.5.5,1.1,2l-3.6.9c.7-1.8,1.8-3,2.6-3M66.1,160.1h-.8c-.6,1-1.7,1.7-2.8,1.9-.9,0-1.5-.5-1.5-1.9s.1-1.1.1-1.6l5.9-1.9c1.1-2.7-.3-3.9-1.9-3.9s-5.9,4.7-5.9,8.6.9,2.8,2.3,2.8,3.2-1.5,4.6-4M64.9,151.6l4-3.8v-.4h-2.2l-2.6,4.2h.7ZM52.8,154.3h1.5l-3.1,8.5c-.2.5,0,1,.4,1.3.2,0,.3.1.5,0,2.4-.3,4.5-1.9,5.5-4h-.5c-1,1-2.3,1.8-3.6,2.2l2.8-8h3l.3-1.1h-2.7l.9-3.1h-1.1l-2,3.1-1.9.3v.8ZM51.4,155.3c.4-1.3.1-2.6-.9-2.6s-1.5.9-2.8,3.8v-1.6c0-1.1-.3-2.2-1.3-2.2s-2.3,1.9-3.1,3.6h.5c.6-.8,1.2-1.2,1.6-1.2s.7.7,0,2.4l-2.3,5.1c-.4.9,0,1.5.9,1.5.5,0,.9-.2,1.1-.7l2.2-5.9,1.9-2.3h2.3ZM38.4,154.3c.8,0,1.5.5,1.1,2l-3.6.9c.7-1.8,1.8-3,2.6-3M40.4,160.1h-.8c-.6,1-1.7,1.7-2.8,1.9-.9,0-1.5-.5-1.5-1.9,0-.5.1-1.1.3-1.6l5.8-1.9c1.1-2.7-.3-3.9-1.9-3.9s-5.8,4.7-5.8,8.6.8,2.8,2.2,2.8,3.2-1.5,4.6-4M26.1,162.6c-.5,0-1.3-.5-1.3-1.1s.3-.8.5-1.6l.9-2.4c.9-1.2,2.6-2.6,3.4-2.6s.9.4.9,1.2-2.2,6.5-4.5,6.5M32.7,155.1c0-1.8-.7-2.4-1.8-2.4s-3,1.6-4.3,3.5l3.5-9.2v-.3l-3.8.4v.4l.8.5c.7.5.4,1.1-.1,2.6l-3.9,9.7c-.3.6-.5,1.2-.7,1.9,0,.9,1.3,1.9,2.6,1.9s7.7-5.1,7.7-9M21.3,153.9c.2-.4,0-.9-.3-1.1-.1,0-.2-.1-.4-.1-2,.3-3.7,1.7-4.5,3.6h.5c.6-.8,1.4-1.4,2.3-1.8l-3.2,8.4c-.2.5.1,1,.6,1.2,0,0,.1,0,.2,0,2-.3,3.6-1.7,4.2-3.6h-.5c-.5.8-1.3,1.5-2.3,1.8l3.4-8.4ZM21.9,149.7c.7,0,1.3-.6,1.3-1.3s-.6-1.3-1.3-1.3-1.3.6-1.3,1.3.6,1.3,1.3,1.3M13.4,148.4h-7.7v.7c2.2.5,2.4.7,1.3,3.6l-2.4,6.9c-1.1,2.8-1.5,3.1-4.2,3.5v.7h11.3l2.6-4.5h-.9c-1.3,1.5-3.1,3.5-5.7,3.5s-2.2-.3-1.1-3.2l2.4-6.9c1.1-3,1.5-3.1,4-3.6l.3-.7Z"/>
        <path d="M.2,85.5v-27.8h8.5c2.6-.2,5.2.6,7.3,2.2,1.8,1.5,2.8,3.7,2.7,6.1,0,1.6-.4,3.1-1.2,4.5-.8,1.2-1.9,2.2-3.2,2.8l8.6,12.3h-6.7l-7.4-11.2h-2.8v11.2H.2ZM9,62.4h-3.1v7h3.1c1,0,2.1-.3,2.8-.9.7-.6,1.1-1.6,1.1-2.6,0-1-.4-1.9-1.1-2.6-.8-.6-1.8-1-2.8-.9Z"/>
        <path d="M26.4,85.5v-27.8h16.3v4.7h-10.7v6.5h9v4.9h-9v6.9h10.7v4.9h-16.3ZM37.1,55.3h-5.1l4.5-5.4h5.9l-5.3,5.4Z"/>
        <path d="M49.2,85.5v-27.8h9.3c2.6-.2,5.1.6,7.2,2.2,3.4,3.1,3.6,8.3.5,11.6-.2.2-.3.4-.5.5-2,1.6-4.6,2.4-7.2,2.3h-3.6v11.2h-5.7ZM58.7,62.4h-3.8v7h3.8c1,0,2.1-.3,2.8-.9.7-.6,1.1-1.6,1.1-2.6,0-1-.4-1.9-1.1-2.6-.8-.6-1.8-1-2.8-.9Z"/>
        <path d="M89.4,75.1v-17.4h5.7v16.9c.1,3.2-1,6.3-3.1,8.6-4.7,4.2-11.8,4.2-16.5,0-2.1-2.4-3.2-5.5-3-8.6v-16.9h5.7v17.4c-.1,1.6.4,3.2,1.5,4.3,1.1,1.1,2.5,1.7,4,1.6,1.6,0,3.1-.5,4.2-1.6,1-1.2,1.6-2.7,1.5-4.3Z"/>
        <path d="M102.1,85.5v-27.8h8c2.4-.1,4.8.6,6.7,2,1.7,1.3,2.6,3.4,2.6,5.5,0,1.1-.3,2.2-.8,3.1-.5.9-1.2,1.7-2.2,2.3,1.4.6,2.5,1.6,3.4,2.8.8,1.1,1.2,2.4,1.2,3.8,0,2.4-1,4.6-2.8,6.1-2.2,1.6-4.9,2.3-7.6,2.2h-8.5ZM110.1,62.4h-2.3v6.2h2.3c.9,0,1.8-.2,2.6-.8,1.3-1.3,1.3-3.3,0-4.6,0,0,0,0,0,0-.7-.6-1.6-.9-2.6-.8ZM110.9,73.5h-3.1v7.2h3.1c1.1.1,2.2-.2,3.1-.9.8-.7,1.3-1.7,1.2-2.7,0-1-.4-2-1.2-2.7-.9-.6-2-.9-3.1-.8Z"/>
        <path d="M126.7,85.5v-27.8h5.7v22.7h10.7v5.1h-16.3Z"/>
        <path d="M148,85.5v-27.8h5.7v27.8h-5.7Z"/>
        <path d="M184.8,84.8c.9.9,1.9,1.5,3,2,.9.4,1.9.6,2.8.7h.9l1.1-.3v4.9l-1.3.4h-1.6c-1.5,0-3-.3-4.5-.9-1.6-.7-3-1.7-4.3-2.8l-3.2-2.8-1.9.3h-2c-2,0-4.1-.4-5.9-1.2-1.7-.8-3.3-1.8-4.7-3.1-2.6-2.8-4.1-6.5-4-10.4,0-3.9,1.4-7.6,4-10.4,1.4-1.3,3-2.4,4.7-3.1,1.9-.8,3.9-1.2,5.9-1.2,2.1,0,4.2.4,6.1,1.2,1.7.7,3.3,1.8,4.7,3.1,2.6,2.8,4.1,6.5,4,10.4,0,2.2-.5,4.5-1.5,6.5-.9,2-2.3,3.8-4,5.1l1.8,1.8ZM173.8,81.1c2.4,0,4.7-1,6.5-2.7.8-.9,1.4-1.9,1.9-3,.9-2.4.9-5.1,0-7.6-.5-1.1-1.1-2.1-1.9-3-.8-.8-1.8-1.5-2.8-2-1.2-.4-2.4-.7-3.6-.7-1.2,0-2.4.2-3.5.7-1.1.4-2.1,1.1-2.8,2-.8.8-1.5,1.9-1.9,3-.9,2.4-.9,5.1,0,7.6.4,1.1,1.1,2.1,1.9,3,.8.9,1.7,1.5,2.8,1.9,1.1.5,2.3.8,3.5.8Z"/>
        <path d="M210.5,75.1v-17.4h5.7v16.9c.1,3.2-1,6.3-3.1,8.6-4.7,4.2-11.8,4.2-16.5,0-2.1-2.4-3.2-5.5-3.1-8.6v-16.9h5.7v17.4c0,1.6.5,3.2,1.6,4.3,1,1.1,2.5,1.7,4,1.6,1.6,0,3.1-.5,4.2-1.6,1-1.2,1.6-2.7,1.5-4.3Z"/>
        <path d="M223.2,85.5v-27.8h16.2v4.7h-10.5v6.5h8.9v4.9h-8.9v6.9h10.5v4.9h-16.2Z"/>
        <path d="M.2,127.6v-27.8h16.2v4.7H5.9v6.5h9v4.9H5.9v11.7H.2Z"/>
        <path d="M21.4,127.6v-27.8h8.5c2.6-.2,5.2.6,7.3,2.2,1.8,1.5,2.8,3.7,2.7,6.1,0,1.6-.4,3.1-1.2,4.5-.8,1.2-1.9,2.2-3.2,2.8l8.8,12.3h-6.7l-7.4-11.2h-3v11.2h-5.7ZM30.3,104.5h-3.2v7h3.2c1,0,2-.3,2.7-.9.7-.6,1.1-1.6,1.1-2.6,0-1-.4-1.9-1.1-2.6-.8-.6-1.7-1-2.7-.9Z"/>
        <path d="M45.4,127.6l10.5-27.8h7.4l10.5,27.8h-6.1l-2.7-7.3h-11.1l-2.7,7.3h-5.9ZM55.8,115.6h7.6l-3.8-10.5-3.8,10.5Z"/>
        <path d="M78.2,127.6v-27.8h7.2l12.6,19.8v-19.8h5.7v27.8h-7.3l-12.6-20v20h-5.5Z"/>
        <path d="M123.7,123.2c1.5,0,3-.4,4.3-1.1,1.2-.7,2.2-1.6,3-2.7l4.5,3.4c-1,1.5-2.4,2.8-4,3.6-1.7,1-3.5,1.6-5.4,1.9l-3.5,5.8h-5l3.5-5.9c-1.8-.3-3.4-.9-5-1.8-1.4-.9-2.7-2-3.8-3.2-1.1-1.3-1.9-2.8-2.4-4.5-.5-1.6-.8-3.3-.8-5,0-3.9,1.4-7.6,4-10.4,1.4-1.3,3-2.4,4.7-3.1,1.9-.8,3.9-1.2,5.9-1.2,2.4,0,4.7.5,6.9,1.5,1.9,1,3.6,2.4,4.9,4.2l-4.5,3.4c-.8-1.1-1.8-2-3-2.7-1.3-.7-2.8-1.1-4.3-1.1-1.2,0-2.4.2-3.5.7-1.1.5-2.1,1.2-3,2-.7.9-1.3,1.9-1.8,3-.9,2.4-.9,5.1,0,7.6.5,1.1,1,2.1,1.8,3,.8.9,1.8,1.5,3,1.9,1.1.5,2.3.8,3.5.8Z"/>
        <path d="M136.7,127.6l10.5-27.8h7.4l10.5,27.8h-5.9l-2.7-7.3h-11.1l-2.7,7.3h-6.1ZM147.2,115.6h7.6l-3.8-10.5-3.8,10.5Z"/>
        <path d="M169.4,127.6v-27.8h5.7v27.8h-5.7Z"/>
        <path d="M180.4,123.8l4.2-3.8c.8,1,1.7,1.8,2.8,2.4,1,.6,2.2,1,3.4.9.9,0,1.8-.2,2.6-.8.7-.6,1-1.5.9-2.4,0-1.3-.8-2.4-2-2.8l-4.3-2.2c-1.6-.7-3.1-1.7-4.5-2.8-1.3-1.4-2-3.3-1.9-5.3,0-1.1.2-2.1.7-3.1.4-1,1-1.9,1.8-2.7.8-.7,1.8-1.2,2.8-1.6,1.1-.5,2.4-.7,3.6-.7,1.9,0,3.8.4,5.5,1.2,1.6.9,3,2.1,4.2,3.5l-4.2,3.6c-.7-1-1.6-1.9-2.6-2.6-.9-.6-1.9-.9-3-.9-.9,0-1.7.3-2.3.9-.6.5-1,1.2-.9,2,0,1.3.8,2.4,2,2.8l4.3,2.2c1.6.7,3.1,1.7,4.5,3,1.4,1.4,2.2,3.3,2,5.3-.1,1.2-.4,2.4-.8,3.5-.5,1-1.2,1.9-2,2.7-.8.7-1.8,1.2-2.8,1.6-1.2.4-2.4.6-3.6.5-2,0-4.1-.4-5.9-1.2-1.7-.8-3.2-2-4.5-3.4Z"/>
        <path d="M206,127.6v-27.8h16.2v4.7h-10.7v6.5h9v4.9h-9v6.9h10.7v4.9h-16.2Z"/>
        <g id="Marianne">
          <path id="Fond-2" class="cls-2" d="M43.7,34l1.2-1.2h0c.7-.9,1.6-1.7,2.4-2.4l.8-.7c0,0,.1-.2.1-.3l-.9.5s-.1,0,0-.1l.7-.5h-.1c-.9,0-1.8.4-2.3,1.1h-.3c-1.1.4-1.9,1.3-3,1.8h0l-1.3.5c-.6,0-1.2,0-1.8,0l-2.7.5h0l-1.3.5h-.1c0,0,0,.1-.1.1l-.4.4c-.4.3-.8.6-1.2.9h-.1l-1.2,1.2h-.1c.1,0,.1-.1.3-.3,0-.1,0-.2.1-.3.1-.2.2-.3.3-.5h0l1.2-.8h0c0,0-.1,0-.1-.1h-.3c-.1.3-.3.5-.5.5h0c0,0,0-.1.1-.1h0l.5-.4h0l.8-.5h.1l-1.2.5h-.1s0,.1-.1,0h0l.4-.4h.1c2.3-1.8,5.5-1.3,8.2-2.3l.7-.4c.3-.1.5-.5,1.1-.7.6-.5,1-1.1,1.2-1.8h-.1c-1,.4-2,.6-3.1.7-1.5.6-3.2.9-4.9.8h.4c0-.1.1-.3.3-.4h.3c0,0,0-.1.1-.1h.3c-.3-.3-.7.3-1.1,0s.1-.3.3-.4h.3c0-.1,0-.2.1-.3,1.1-.7,2.2-1.1,3.1-1.8s-.3.3-.5.1,0-.3.1-.3c.8-.3,1.6-.6,2.3-.9-.3,0-.5.3-.8,0h.4v-.3c0,0,0-.1.1-.1h-.1l.4-.3h-.1c.2-.3.6-.4.9-.4-.1-.1-.4,0-.4-.1s.1-.1.3-.1h-.3c0,0-.1,0-.1-.1s0-.1.1-.1h0c.3-.6.5-1.1.7-1.8h-.1c-.9.7-1.9,1.2-3,1.5h-.4c-.4.2-.9.1-1.2-.1l-.7-.5-1.9-.9c-1.8-.7-3.6-1.2-5.5-1.3.8-.3,1.7-.5,2.6-.7,1.1-.5,2.4-.7,3.6-.7-.3-.1-.5,0-.7,0-1.1,0-2.1,0-3.1.4l-2.2.5c-.4.1-.7.7-1.1.5v-.3c.6-.9,1.6-1.6,2.7-1.8,1.3-.2,2.5-.1,3.8.1l2.8.5c.3,0,.4.5.7.7s.8,0,1.3.3-.1-.3,0-.4.5,0,.9-.1-.5-.9-.8-1.5h0c.5.5,1.1,1,1.8,1.3.4.3,1.2.4,1.1,0-.5-.8-1-1.5-1.6-2.2v-.3h-.3v-.7c-.3-.1-.1-.4-.4-.5s0-.9-.1-1.3c-.2-.4-.2-.8-.3-1.2-.3-1.2-.5-2.3-.7-3.5-.1-1.3.8-2.4,1.5-3.6.4-1,1.1-1.8,2-2.3.2-.9.7-1.7,1.3-2.3.6-.7,1.3-1.2,2.2-1.5l2-.8h14.4l.3.3,1.1.5c.5.2,1,.6,1.3,1.1.1.3.4.7.3.9s-.3.9-.5,1.1c-.5.2-1.1.3-1.6.3l-.8-.3c1.1.4,2.1,1.1,2.8,2l.7.3h0c-.1.1-.3.3-.1.4h.1c.4-.1.3-.8.8-.5.3.1.5.5.4.9,0,0,0,.1-.1.2l-.8.7c-.1.2-.1.4,0,.5l.4.8.4,1.6c.4,1,.6,2.1.5,3.2,0,.5-.3,1.1-.1,1.6.2.6.5,1.1.8,1.6.4.3.6.7.8,1.1.4.7,1.2,1.5.9,2.3s-1.1.4-1.6.8,0,.9.3,1.2-.5,1.1-.9,1.3.4.1.4.3.5.5.3.9-1.2.7-.7,1.3,0,1.1-.1,1.5c-.2.6-.7,1-1.3,1.1-.4.2-.9.3-1.3.1h-.4c-1.2-.2-2.4-.4-3.6-.5l-1.1.3-.8.8h-.4l-.5.8h0q0,.1-.1.1l-.5,1.3c-.4,1.6-.3,3.1.1,3.4s2.4.8,3.9,1.6l1.8.8h-29.7c1.5-.9,3.1-1.7,4.7-2.4,1.3-.5,2.6-1.2,3.6-2.2M32.6,28.4c-.1,0-.4.1-.4,0s.5-.4.9-.5.3-.3.4-.1l.5.3c-.4.4-.9.3-1.5.4M21.5,26.8h-.1c.9-1.1,1.7-2.3,2.4-3.6.9-.5,1.7-1.1,2.4-1.8,1.1-1.3,2.5-2.4,4-3.2.6-.2,1.3-.1,1.9.1-.3.3-.7.3-.9.4h-.1v-.3c-.7.8-1.8,1.2-2.3,2.2s-.7,1.6-1.6,1.8,0-.1-.1-.1c-2,1.4-3.9,3.1-5.5,5M27.5,22.5c0,.1-.1.1-.1.3s-.1.3-.3.3h-.1c0-.3.3-.7.5-.7h0M30.9,33.1c0,.1-.1.1-.1.3s.1,0,.1.1l-.5.3c0,0-.1,0-.1.1h-.3c-.1.1-.5.1-.4,0l.5-.5c.1-.1.3-.1.3-.3h.5M29.6,32.6h0l-.9.5-.9.4h-.1l-.7.5h-.4c0,0,0,.1-.1.1h-.1q0,.1-.1.1h-.1c-.1.1-.3.1-.3.3l-.4.4h-.4l.3-.3h.3c0-.1.1-.3.3-.3h0c0,0,0-.1.1-.1h0q.1-.1.1-.3h0c.1-.1.3-.3.3-.4h0l-.3.3c0,0-.1,0-.1-.1,0,0,.1,0,.1-.1h.1l.3-.4h.3v-.3h0c.8-.7,1.9-.5,2.8-1.1s.8.1,1.1,0h.7l-1.8,1.2M31,28.2c-.1-.1.1,0,.3-.3h-.5l-1.2.4-1.5.5c-.7.5-1.5.9-2.3,1.2q-.1,0-.1-.1l.5-.4h0c.6-.7,1.3-1.4,2-1.9v-.3c.3-.2.6-.5.8-.8.1-.3.4-.6.7-.7h-.3c-.3,0-.5.1-.8-.1l.4-.3h-.1c-.1-.3.1-.4.4-.4l.8-.3c-.5-.1-1.1.1-1.6-.1.3-.9,1-1.7,1.9-2.2h.1c0,.4-.1.7-.5.7l1.8.5c0,0,0,.1-.1.1s-.1,0-.1-.1c.3.3.8.1,1.1.4s-.4,0-.5,0c2.2.7,4.6,1.1,6.5,2.6-1.6.5-3.3.7-5,.7h-.7c-.3,0-.5,0-.7.3h-.9"/>
          <path id="Rouge" class="cls-1" d="M43.7,34l1.2-1.2h0c.7-.9,1.6-1.7,2.4-2.4l.8-.7c0,0,.1-.2.1-.3l-.9.5s-.1,0,0-.1l.7-.5h-.1c-.9,0-1.8.4-2.3,1.1h-.3c-1.1.4-1.9,1.3-3,1.8h0l-1.3.5c-.6,0-1.2,0-1.8,0l-2.7.5h0l-1.3.5h-.1c0,0,0,.1-.1.1l-.4.4-1.2.9c0,0-.1,0-.1.1l-1.2,1.1h-.1c.1,0,.1-.1.3-.3,0-.1,0-.2.1-.3.1-.2.2-.3.3-.5h0l1.2-.8h0c0,0-.1,0-.1-.1h-.3c-.1.3-.3.5-.5.5h0c0,0,0-.1.1-.1h0l.5-.4h0l.8-.5h.1l-1.2.5h-.1s0,.1-.1,0h0l.4-.4h.1c2.3-1.8,5.5-1.3,8.2-2.3l.7-.4c.3-.1.5-.5,1.1-.7.6-.5,1-1.1,1.2-1.8h-.1c-1,.4-2,.6-3.1.7-1.5.6-3.2.9-4.9.8h.4c0-.1.1-.3.3-.4h.3c0,0,0-.1.1-.1h.3c-.3-.3-.7.3-1.1,0s.1-.3.3-.4h.3c0-.1,0-.2.1-.3,1.1-.7,2.2-1.1,3.1-1.8s-.3.3-.5.1,0-.3.1-.3c.8-.3,1.6-.6,2.3-.9-.3,0-.5.3-.8,0h.4v-.3c0,0,0-.1.1-.1h-.1l.4-.3h-.1c.2-.3.6-.4.9-.4-.1-.1-.4,0-.4-.1s.1-.1.3-.1h-.3c0,0-.1,0-.1-.1s0-.1.1-.1h0c.3-.6.5-1.1.7-1.8h-.1c-.9.7-1.9,1.2-3,1.5h-.4c-.4.2-.9.1-1.2-.1l-.7-.5-1.9-.9c-1.8-.7-3.6-1.2-5.5-1.3.8-.3,1.7-.5,2.6-.7,1.1-.5,2.4-.7,3.6-.7-.3-.1-.5,0-.7,0-1.1,0-2.1,0-3.1.4l-2.2.5c-.4.1-.7.7-1.1.5v-.3c.6-.9,1.6-1.6,2.7-1.8,1.3-.2,2.5-.1,3.8.1l2.8.5c.3,0,.4.5.7.7s.8,0,1.3.3-.1-.3,0-.4.5,0,.9-.1-.5-.9-.8-1.5h0c.7.4,1.1,1.1,1.8,1.3s1.2.4,1.1,0c-.5-.8-1-1.5-1.6-2.2v-.3h-.3v-.7c-.3-.1-.1-.4-.3-.5s-.1-.9-.3-1.3c-.2-.4-.2-.8-.3-1.2-.3-1.2-.5-2.3-.7-3.5-.1-1.3.8-2.4,1.5-3.6.4-1,1.1-1.8,2-2.3.2-.9.7-1.7,1.3-2.3.6-.7,1.3-1.2,2.2-1.5l2-.8H.2v38.3h35.1c1.5-.9,3.1-1.7,4.7-2.4,1.3-.5,2.6-1.2,3.6-2.2M32.6,28.8c-.1,0-.4.1-.4,0s.5-.4.9-.5.3-.3.4-.1l.5.3c-.4.4-.9.3-1.5.4M21.5,27.2h-.1c.9-1.1,1.7-2.3,2.4-3.6.9-.6,1.7-1.3,2.4-2.2,1.1-1.3,2.5-2.4,4-3.2.6-.2,1.3-.1,1.9.1-.3.3-.7.3-.9.4h-.1v-.3c-.7.8-1.8,1.2-2.3,2.2s-.7,1.6-1.6,1.8,0-.1-.1-.1c-2,1.4-3.9,3.1-5.5,5M27.5,22.5c0,.1-.1.1-.1.3s-.1.3-.3.3h-.1c0-.3.3-.7.5-.7h0M30.9,33.1c0,.1-.1.1-.1.3s.1,0,.1.1l-.5.3h-.4c-.1.1-.5.1-.4,0l.5-.5c.1-.1.3-.1.3-.3,0,0,.1,0,.1-.1h.4M29.6,32.3h0l-.9.5-.9.4h-.1l-.7.5h-.4c0,0,0,.1-.1.1h-.1q0,.1-.1.1h-.1c-.1.1-.3.1-.3.3l-.4.4h-.4l.3-.3h.3c0-.1.1-.3.3-.3h0c0,0,0-.1.1-.1h0q.1-.1.1-.3h0c.1-.1.3-.3.3-.4h0l-.3.3c0,0-.1,0-.1-.1,0,0,.1,0,.1-.1h.1l.3-.4h.3v-.3h0c.8-.7,1.9-.5,2.8-1.1s.8.1,1.1,0h.7l-1.8,1.2M31,27.9c-.1-.1.1,0,.3-.3h-.5l-1.2.4-1.5.5c-.7.5-1.5.9-2.3,1.2q-.1,0-.1-.1l.5-.4h0c.6-.7,1.3-1.4,2-1.9v-.3c.3-.2.6-.5.8-.8.1-.3.4-.6.7-.7h-.3c-.3,0-.5.1-.8-.1l.4-.3h-.1c-.1-.3.1-.4.4-.4l.8-.3c-.5-.1-1.1.1-1.6-.1.3-.9,1-1.7,1.9-2.2h.1c0,.4-.1.7-.5.7l1.8.5c0,0,0,.1-.1.1s-.1,0-.1-.1c.3.3.8.1,1.1.4s-.4,0-.5,0c2.2.7,4.6,1.1,6.5,2.6-1.6.6-3.3.9-5,.9h-.7c-.3,0-.5,0-.7.3h-.9"/>
          <path id="Bleu" class="cls-4" d="M105.3.2h-41l.3.3,1.1.5c.5.2,1,.6,1.3,1.1.1.3.4.7.3.9s-.3.9-.5,1.1c-.5.2-1.1.3-1.6.3l-.8-.3c1.1.4,2.1,1.1,2.8,2l.7.3h0c-.1.1-.3.3-.1.4h.1c.4-.1.3-.8.8-.5.3.1.5.5.4.9,0,0,0,.1-.1.2l-.8.7c-.1.2-.1.4,0,.5l.4.8.4,1.6c.4,1,.6,2.1.5,3.2,0,.5-.3,1.1,0,1.6.1.6.4,1.1.7,1.6.4.3.6.7.8,1.1.5.7,1.2,1.5.9,2.3s-1.1.4-1.6.8,0,.9.3,1.2-.5,1.1-.9,1.3.4.1.4.3.5.5.3.9-1.2.7-.7,1.3,0,1.1-.1,1.5c-.2.6-.7,1-1.3,1.1-.4.2-.9.3-1.3.1h-.4c-1.2-.2-2.4-.4-3.6-.5l-1.1.3-.8.8h-.4l-.5.8h0q0,.1-.1.1l-.5,1.3c-.4,1.6-.3,3.1.1,3.4s2.4.8,3.9,1.6l1.8.8h40.4V.2Z"/>
          <path id="Yeux" class="cls-3" d="M66.7,14.3h.7c-.1.7-.9.8-1.5,1.3h-.1c-.3.1-.1.5-.4.5h-.7c.2.4.6.6,1.1.5l.3.3h.3v.4c-.3.3-.5.1-.8.3h1.6c.4-.3,0-.9.3-1.3s0-.1-.1-.1.3-.4.4-.4.4-.1.4-.3-.3-.3-.1-.4.8-.7.7-1.1-.7-.3-1.1-.4c-.4,0-.8,0-1.2.1l-1.1.3-1.3.7c.5-.2,1.1-.4,1.6-.4.4,0,.8,0,1.2,0"/>
        </g>
      </g>
    </g>
  </g>
</svg>