<?xml version="1.0" encoding="UTF-8"?>
<svg id="Calque_2" xmlns="http://www.w3.org/2000/svg" viewBox="0 0 463.12 243.42">
  <g id="Calque_2-2">
    <path d="M50.96,140.17c5.84,1.1,14.32,3.58,22.02,9.96,8.21,6.8,9.11,12.72,15.2,17.82,11.49,9.61,28.9,5.83,36.7,4.72,46.21-6.58,102.88,31.26,101.93,34.14-1.13,3.41-85.83-33.12-86.98-41.81-.04-.27-.38-5.49-1.53-12.93,0,0-.16-1.36-.33-2.72,0,0-2.75-22.38-1.46-60.33.02-.69.11-2.39,1.24-3.81,1.02-1.29,2.44-1.76,3.07-1.96,2.5-.78,62.67-18.53,68.14-7.29.27.56.51,1.41,1.33,2.68,2.67,4.19,6.97,5.78,8.82,6.47,16.35,6.14,23.16,10.8,25.35,8.13.9-1.1.45-2.82.16-4.14-3.69-16.94-10.41-25.14-10.41-25.14-1.41-1.55-19.35-23.03-35.24-18.08-8.14,2.53-11.26,10.58-18.89,9.45-2.46-.37-4.77-1.77-9.38-4.57-5.22-3.16-8.09-4.87-8-7.07.16-3.64,6.88-6.83,11.64-7.46,11.74-1.53,23.35,10.42,27.83,20.48,1.44,3.24,5.4,12.12,4.94,21.18-.04.82-.13,1.74.2,2.94,1.43,5.17,8.04,6.72,17.29,9.74,16.44,5.37,19.39,8.27,21.73,6.2,3.76-3.33-.88-15.29-1.7-17.42-1.79-4.69-4.29-8.52-3.63-9.02.56-.43,2.93,1.92,3.45,2.41,8.91,8.58,26.84,7.31,54.93,12.96,2.95.59,8.15,1.67,8.08,2.93-.06,1.27-5.47,2.08-7.61,2.41,0,0-39.27,9.91-68.4,23.31-1.05.49-2.58,1.08-4.14,2.46-9.99,8.8-5.23,32.32-3.61,32.29,1.6-.04,4.12-23.17-3.32-30.11-1.18-1.1-2.29-1.81-2.29-1.81-2.99-1.93-5.21-1.86-12.94-3.98,0,0-.29-.08-1.19-.33-7.83-2.19-14.83-4.96-15.72-5.31-.96-.37-47.43-24.47-49.79-20.51-.49.83,1.04,2.53,1.99,3.64,10.25,12.12,11.93,29.99,16.1,38.63,9.57,19.84,34.48,7.44,50.63,27.58,14.57,18.17,6.94,43.76,19.95,47.63,2.03.61,4.72,0,10.01-1.29,0,0,32.71-7.96,66.41-22.91.73-.32,2.46-1.12,3.78-2.88,1.64-2.19,1.78-4.71,1.79-5.97.16-11.17-7.4-49.88,2.15-72.49,4.57-10.82,14.05-20.29,24.89-23.7,8.88-2.79,14.5-.21,25.27.32,10.29.51,25.18-.85,43.91-9.93" fill="none" stroke="#e1000f" stroke-linejoin="round"/>
  </g>
</svg>